<svg width="20" height="20" viewBox="0 0 20 20" fill="none" xmlns="http://www.w3.org/2000/svg">
<path d="M3.3335 15C3.3335 14.116 3.68469 13.2681 4.30981 12.643C4.93493 12.0179 5.78277 11.6667 6.66683 11.6667H13.3335C14.2176 11.6667 15.0654 12.0179 15.6905 12.643C16.3156 13.2681 16.6668 14.116 16.6668 15C16.6668 15.442 16.4912 15.866 16.1787 16.1785C15.8661 16.4911 15.4422 16.6667 15.0002 16.6667H5.00016C4.55814 16.6667 4.13421 16.4911 3.82165 16.1785C3.50909 15.866 3.3335 15.442 3.3335 15Z" stroke="black" stroke-opacity="0.8" stroke-width="1.66667" stroke-linejoin="round"/>
<path d="M10 8.33334C11.3807 8.33334 12.5 7.21406 12.5 5.83334C12.5 4.45263 11.3807 3.33334 10 3.33334C8.61929 3.33334 7.5 4.45263 7.5 5.83334C7.5 7.21406 8.61929 8.33334 10 8.33334Z" stroke="black" stroke-opacity="0.8" stroke-width="1.66667"/>
</svg>
