<svg width="20" height="20" viewBox="0 0 20 20" fill="none" xmlns="http://www.w3.org/2000/svg">
<path d="M15.0257 13.8475L18.5948 17.4158L17.4157 18.595L13.8473 15.0258C12.5196 16.0902 10.8682 16.6691 9.1665 16.6667C5.0265 16.6667 1.6665 13.3067 1.6665 9.16666C1.6665 5.02666 5.0265 1.66666 9.1665 1.66666C13.3065 1.66666 16.6665 5.02666 16.6665 9.16666C16.6689 10.8683 16.09 12.5198 15.0257 13.8475ZM13.354 13.2292C14.4114 12.1414 15.002 10.6836 14.9998 9.16666C14.9998 5.94416 12.389 3.33332 9.1665 3.33332C5.944 3.33332 3.33317 5.94416 3.33317 9.16666C3.33317 12.3892 5.944 15 9.1665 15C10.6835 15.0021 12.1413 14.4115 13.229 13.3542L13.354 13.2292Z" fill="black" fill-opacity="0.8"/>
</svg>
