<svg width="136" height="17" viewBox="0 0 136 17" fill="none" xmlns="http://www.w3.org/2000/svg">
<path d="M15.2344 0.59375V5.28125H7.03125C6.25 5.28125 5.85938 5.51172 5.85938 5.97266C5.85938 6.29297 6.25 6.45312 7.03125 6.45312H8.20312C12.8906 6.45312 15.2344 8.17578 15.2344 11.6211C15.2344 15.207 12.8906 17 8.20312 17H0V12.3125H8.20312C8.98438 12.3125 9.375 12.082 9.375 11.6211C9.375 11.3008 8.98438 11.1406 8.20312 11.1406H7.03125C2.34375 11.1406 0 9.41797 0 5.97266C0 2.38672 2.34375 0.59375 7.03125 0.59375H15.2344ZM21.5456 7.60156L25.6589 0.59375H32.0925L27.1003 8.77344L32.0925 17H25.6589L21.5456 9.96875V17H15.6862V0.59375H21.5456V7.60156ZM38.4038 0.59375V17H32.5444V0.59375H38.4038ZM44.715 9.71094V17H38.8556V0.59375H44.715L49.4025 7.88281V0.59375H55.2619V17H49.4025L44.715 9.71094ZM66.8063 5.28125V7.625H69.15C69.9313 7.625 70.3219 7.23438 70.3219 6.45312C70.3219 5.67188 69.9313 5.28125 69.15 5.28125H66.8063ZM66.8063 12.3125V17H60.9469V0.59375H69.15C73.8375 0.59375 76.1813 2.54688 76.1813 6.45312C76.1813 8.75 75.3688 10.3711 73.7438 11.3164L76.1813 17H70.3219L68.318 12.3125H66.8063ZM90.6956 0.59375V5.28125H82.4925V6.45312H90.6956V11.1406H82.4925V12.3125H90.6956V17H76.6331V0.59375H90.6956ZM97.0069 6.45312H99.3506C100.132 6.45312 100.522 6.25781 100.522 5.86719C100.522 5.47656 100.132 5.28125 99.3506 5.28125H97.0069V6.45312ZM97.0069 12.3125H99.3506C100.132 12.3125 100.522 12.1172 100.522 11.7266C100.522 11.3359 100.132 11.1406 99.3506 11.1406H97.0069V12.3125ZM91.1475 17V0.59375H99.3506C104.038 0.59375 106.382 2.15625 106.382 5.28125C106.382 7.625 105.601 8.79688 104.038 8.79688C105.601 8.79688 106.382 9.96875 106.382 12.3125C106.382 15.4375 104.038 17 99.3506 17H91.1475ZM120.896 0.59375V5.28125H112.693V6.45312H120.896V11.1406H112.693V12.3125H120.896V17H106.834V0.59375H120.896ZM121.348 0.59375H127.207V12.3125H135.411V17H121.348V0.59375Z" fill="#FF4930"/>
</svg>
